<svg xmlns="http://www.w3.org/2000/svg" xmlns:xlink="http://www.w3.org/1999/xlink" width="180" zoomAndPan="magnify" viewBox="0 0 135 30.000001" height="40" preserveAspectRatio="xMidYMid meet" version="1.0"><defs><g/></defs><g fill="#000000" fill-opacity="1"><g transform="translate(11.403355, 24.154985)"><g><path d="M 26.210938 -9.933594 C 24.988281 -10.03125 23.300781 -10.089844 21.148438 -10.128906 C 22 -13.640625 22.855469 -16.859375 23.707031 -19.828125 L 24.484375 -22.660156 C 24.523438 -22.835938 24.484375 -22.953125 24.386719 -23.011719 C 24.269531 -23.066406 24.136719 -23.066406 24 -23.011719 C 23.863281 -22.953125 23.746094 -22.835938 23.6875 -22.660156 C 23.496094 -21.902344 23.242188 -21.011719 22.953125 -19.945312 C 22.078125 -16.898438 21.226562 -13.621094 20.371094 -10.128906 C 17.441406 -10.167969 14.335938 -10.148438 11.097656 -10.089844 C 11.117188 -10.203125 11.15625 -10.320312 11.175781 -10.417969 C 11.835938 -13 12.378906 -15.230469 12.804688 -17.09375 C 13.210938 -18.953125 13.445312 -20.390625 13.503906 -21.398438 C 13.542969 -22.410156 13.308594 -22.914062 12.785156 -22.914062 C 12.28125 -22.914062 11.660156 -22.582031 10.921875 -21.921875 C 10.167969 -21.265625 9.507812 -20.546875 8.90625 -19.769531 C 8.304688 -18.992188 7.933594 -18.371094 7.800781 -17.90625 C 7.742188 -17.675781 7.742188 -17.5 7.839844 -17.382812 C 7.914062 -17.246094 8.050781 -17.191406 8.226562 -17.191406 C 8.363281 -17.191406 8.496094 -17.246094 8.59375 -17.34375 C 8.691406 -17.441406 8.730469 -17.558594 8.75 -17.675781 C 8.75 -17.789062 8.691406 -17.886719 8.574219 -17.945312 C 8.652344 -18.179688 8.886719 -18.585938 9.292969 -19.148438 C 9.699219 -19.710938 10.222656 -20.292969 10.863281 -20.933594 C 11.738281 -21.75 12.300781 -22.136719 12.550781 -22.117188 C 12.765625 -21.847656 12.726562 -20.953125 12.476562 -19.441406 C 12.203125 -17.90625 11.855469 -16.296875 11.445312 -14.570312 C 11.019531 -12.84375 10.691406 -11.523438 10.4375 -10.613281 C 10.378906 -10.359375 10.339844 -10.1875 10.300781 -10.070312 C 5.898438 -9.972656 2.621094 -9.757812 0.484375 -9.46875 C 0.308594 -9.429688 0.175781 -9.351562 0.117188 -9.214844 C 0.0390625 -9.078125 0.0195312 -8.945312 0.078125 -8.847656 C 0.117188 -8.730469 0.234375 -8.671875 0.40625 -8.691406 C 2.523438 -8.984375 5.742188 -9.195312 10.109375 -9.292969 C 9.234375 -5.976562 8.808594 -3.707031 8.789062 -2.523438 C 8.808594 -2.347656 8.886719 -2.269531 9.023438 -2.25 C 9.15625 -2.230469 9.273438 -2.269531 9.410156 -2.367188 C 9.527344 -2.464844 9.585938 -2.582031 9.585938 -2.753906 C 9.566406 -3.238281 9.699219 -4.074219 9.953125 -5.257812 C 10.203125 -6.421875 10.515625 -7.78125 10.902344 -9.3125 C 14.164062 -9.371094 17.246094 -9.390625 20.175781 -9.351562 C 20.003906 -8.632812 19.828125 -7.761719 19.613281 -6.769531 C 19.402344 -5.78125 19.246094 -4.792969 19.148438 -3.820312 C 19.050781 -2.851562 19.050781 -2.039062 19.167969 -1.398438 C 19.285156 -0.738281 19.59375 -0.40625 20.082031 -0.40625 C 20.253906 -0.40625 20.371094 -0.464844 20.46875 -0.601562 C 20.566406 -0.71875 20.605469 -0.835938 20.585938 -0.96875 C 20.566406 -1.085938 20.46875 -1.164062 20.292969 -1.183594 C 20.023438 -1.242188 19.886719 -1.609375 19.90625 -2.328125 C 19.90625 -3.027344 19.984375 -3.859375 20.117188 -4.851562 C 20.253906 -5.820312 20.429688 -6.730469 20.605469 -7.585938 C 20.777344 -8.421875 20.894531 -9.023438 20.972656 -9.351562 C 23.085938 -9.3125 24.757812 -9.253906 25.941406 -9.15625 C 26.113281 -9.15625 26.25 -9.214844 26.347656 -9.332031 C 26.445312 -9.449219 26.484375 -9.566406 26.464844 -9.699219 C 26.445312 -9.835938 26.367188 -9.914062 26.210938 -9.933594 Z M 26.210938 -9.933594 "/></g></g></g><g fill="#000000" fill-opacity="1"><g transform="translate(39.428638, 24.154985)"><g><path d="M 1.804688 -9.546875 C 1.628906 -9.449219 1.339844 -9.390625 0.929688 -9.371094 C 1.222656 -9.546875 1.511719 -9.605469 1.804688 -9.546875 Z M 5.703125 -9.640625 C 3.9375 -8.34375 2.425781 -7.742188 1.164062 -7.839844 C 0.875 -7.859375 0.679688 -7.914062 0.542969 -8.011719 C 0.40625 -8.109375 0.328125 -8.207031 0.308594 -8.324219 C 0.273438 -8.421875 0.273438 -8.535156 0.292969 -8.632812 C 1.046875 -8.535156 1.648438 -8.632812 2.113281 -8.90625 C 2.5625 -9.175781 2.753906 -9.488281 2.695312 -9.855469 C 2.601562 -10.1875 2.328125 -10.359375 1.882812 -10.359375 C 1.4375 -10.339844 0.96875 -10.203125 0.503906 -9.914062 C 0.0195312 -9.621094 -0.292969 -9.195312 -0.464844 -8.671875 C -0.601562 -8.1875 -0.5625 -7.800781 -0.308594 -7.507812 C -0.0585938 -7.21875 0.40625 -7.0625 1.085938 -7.0625 C 2.621094 -7.0625 4.269531 -7.722656 6.054688 -9.058594 C 6.207031 -9.175781 6.285156 -9.3125 6.285156 -9.449219 C 6.265625 -9.585938 6.207031 -9.679688 6.113281 -9.738281 C 5.996094 -9.796875 5.859375 -9.757812 5.703125 -9.640625 Z M 5.703125 -9.640625 "/></g></g></g><g fill="#000000" fill-opacity="1"><g transform="translate(45.032192, 24.154985)"><g><path d="M 8.574219 -9.660156 C 8.441406 -9.566406 8.304688 -9.449219 8.167969 -9.351562 C 7.722656 -9.003906 7.257812 -8.671875 6.75 -8.34375 C 6.226562 -8.011719 5.78125 -7.839844 5.375 -7.839844 C 5.121094 -7.839844 4.964844 -7.914062 4.890625 -8.050781 C 4.792969 -8.1875 4.753906 -8.457031 4.753906 -8.828125 C 4.773438 -9.039062 4.753906 -9.253906 4.734375 -9.488281 C 4.695312 -9.699219 4.597656 -9.894531 4.460938 -10.050781 C 4.328125 -10.203125 4.074219 -10.28125 3.746094 -10.28125 C 3.257812 -10.28125 2.714844 -10.089844 2.152344 -9.699219 C 1.589844 -9.292969 1.007812 -8.828125 0.425781 -8.265625 C 0.523438 -8.632812 0.621094 -9.003906 0.71875 -9.351562 C 0.777344 -9.566406 0.835938 -9.738281 0.875 -9.894531 C 0.910156 -10.070312 0.875 -10.1875 0.777344 -10.242188 C 0.660156 -10.300781 0.523438 -10.300781 0.386719 -10.242188 C 0.253906 -10.1875 0.15625 -10.070312 0.0976562 -9.894531 C 0.0390625 -9.71875 -0.0195312 -9.527344 -0.078125 -9.3125 C -0.175781 -8.964844 -0.253906 -8.613281 -0.347656 -8.265625 C -0.445312 -7.914062 -0.484375 -7.644531 -0.503906 -7.429688 C -0.523438 -7.179688 -0.445312 -7.042969 -0.273438 -6.984375 C -0.117188 -6.925781 0.0976562 -7.003906 0.347656 -7.238281 C 0.929688 -7.800781 1.511719 -8.324219 2.09375 -8.808594 C 2.65625 -9.273438 3.144531 -9.507812 3.53125 -9.507812 C 3.707031 -9.507812 3.820312 -9.449219 3.878906 -9.332031 C 3.9375 -9.195312 3.957031 -8.964844 3.957031 -8.613281 C 3.9375 -8.402344 3.957031 -8.167969 3.996094 -7.933594 C 4.035156 -7.683594 4.132812 -7.488281 4.308594 -7.3125 C 4.480469 -7.140625 4.753906 -7.0625 5.160156 -7.0625 C 5.703125 -7.0625 6.265625 -7.257812 6.867188 -7.625 C 7.46875 -7.992188 8.03125 -8.382812 8.554688 -8.789062 C 8.691406 -8.886719 8.808594 -8.984375 8.945312 -9.078125 C 9.097656 -9.214844 9.175781 -9.332031 9.175781 -9.46875 C 9.15625 -9.605469 9.097656 -9.679688 8.984375 -9.738281 C 8.867188 -9.796875 8.730469 -9.757812 8.574219 -9.660156 Z M 8.574219 -9.660156 "/></g></g></g><g fill="#000000" fill-opacity="1"><g transform="translate(53.467556, 24.154985)"><g><path d="M 6.363281 -9.71875 C 5.839844 -9.429688 5.316406 -9.214844 4.773438 -9.117188 C 4.210938 -9.003906 3.800781 -8.964844 3.53125 -9.023438 C 3.375 -9.058594 3.257812 -9.136719 3.203125 -9.273438 C 3.144531 -9.410156 3.085938 -9.546875 3.046875 -9.699219 C 3.007812 -9.914062 2.949219 -10.089844 2.851562 -10.242188 C 2.753906 -10.398438 2.5625 -10.476562 2.269531 -10.476562 C 1.921875 -10.476562 1.609375 -10.339844 1.359375 -10.070312 C 1.105469 -9.777344 0.875 -9.449219 0.679688 -9.078125 C 0.738281 -9.332031 0.816406 -9.605469 0.910156 -9.933594 C 0.929688 -10.109375 0.890625 -10.222656 0.796875 -10.28125 C 0.679688 -10.339844 0.5625 -10.339844 0.425781 -10.28125 C 0.292969 -10.222656 0.175781 -10.109375 0.117188 -9.933594 C -0.175781 -8.90625 -0.328125 -8.148438 -0.347656 -7.703125 C -0.386719 -7.238281 -0.253906 -7.003906 0.078125 -7.003906 C 0.292969 -7.003906 0.484375 -7.101562 0.621094 -7.3125 C 0.757812 -7.507812 0.890625 -7.78125 1.027344 -8.128906 C 1.105469 -8.304688 1.203125 -8.496094 1.339844 -8.75 C 1.457031 -8.984375 1.570312 -9.195312 1.707031 -9.410156 C 1.84375 -9.605469 1.960938 -9.699219 2.054688 -9.699219 C 2.113281 -9.699219 2.152344 -9.660156 2.171875 -9.605469 C 2.191406 -9.546875 2.230469 -9.449219 2.25 -9.351562 C 2.308594 -9.136719 2.386719 -8.925781 2.523438 -8.710938 C 2.636719 -8.496094 2.851562 -8.34375 3.164062 -8.265625 C 3.53125 -8.1875 4.054688 -8.226562 4.734375 -8.363281 C 5.394531 -8.496094 6.035156 -8.730469 6.65625 -9.078125 C 6.828125 -9.175781 6.90625 -9.3125 6.925781 -9.449219 C 6.925781 -9.585938 6.867188 -9.679688 6.769531 -9.757812 C 6.675781 -9.816406 6.539062 -9.816406 6.363281 -9.71875 Z M 6.363281 -9.71875 "/></g></g></g><g fill="#000000" fill-opacity="1"><g transform="translate(59.691781, 24.154985)"><g><path d="M 6.363281 -9.71875 C 5.839844 -9.429688 5.316406 -9.214844 4.773438 -9.117188 C 4.210938 -9.003906 3.800781 -8.964844 3.53125 -9.023438 C 3.375 -9.058594 3.257812 -9.136719 3.203125 -9.273438 C 3.144531 -9.410156 3.085938 -9.546875 3.046875 -9.699219 C 3.007812 -9.914062 2.949219 -10.089844 2.851562 -10.242188 C 2.753906 -10.398438 2.5625 -10.476562 2.269531 -10.476562 C 1.921875 -10.476562 1.609375 -10.339844 1.359375 -10.070312 C 1.105469 -9.777344 0.875 -9.449219 0.679688 -9.078125 C 0.738281 -9.332031 0.816406 -9.605469 0.910156 -9.933594 C 0.929688 -10.109375 0.890625 -10.222656 0.796875 -10.28125 C 0.679688 -10.339844 0.5625 -10.339844 0.425781 -10.28125 C 0.292969 -10.222656 0.175781 -10.109375 0.117188 -9.933594 C -0.175781 -8.90625 -0.328125 -8.148438 -0.347656 -7.703125 C -0.386719 -7.238281 -0.253906 -7.003906 0.078125 -7.003906 C 0.292969 -7.003906 0.484375 -7.101562 0.621094 -7.3125 C 0.757812 -7.507812 0.890625 -7.78125 1.027344 -8.128906 C 1.105469 -8.304688 1.203125 -8.496094 1.339844 -8.75 C 1.457031 -8.984375 1.570312 -9.195312 1.707031 -9.410156 C 1.84375 -9.605469 1.960938 -9.699219 2.054688 -9.699219 C 2.113281 -9.699219 2.152344 -9.660156 2.171875 -9.605469 C 2.191406 -9.546875 2.230469 -9.449219 2.25 -9.351562 C 2.308594 -9.136719 2.386719 -8.925781 2.523438 -8.710938 C 2.636719 -8.496094 2.851562 -8.34375 3.164062 -8.265625 C 3.53125 -8.1875 4.054688 -8.226562 4.734375 -8.363281 C 5.394531 -8.496094 6.035156 -8.730469 6.65625 -9.078125 C 6.828125 -9.175781 6.90625 -9.3125 6.925781 -9.449219 C 6.925781 -9.585938 6.867188 -9.679688 6.769531 -9.757812 C 6.675781 -9.816406 6.539062 -9.816406 6.363281 -9.71875 Z M 6.363281 -9.71875 "/></g></g></g><g fill="#000000" fill-opacity="1"><g transform="translate(65.916009, 24.154985)"><g><path d="M -0.214844 3.433594 C -0.503906 3.648438 -0.699219 3.648438 -0.796875 3.433594 C -0.910156 3.21875 -0.949219 2.929688 -0.890625 2.5625 C -0.796875 1.6875 -0.386719 0.523438 0.347656 -0.929688 C 1.085938 -2.367188 2.074219 -3.800781 3.335938 -5.21875 C 2.851562 -3.414062 2.289062 -1.667969 1.667969 0.0195312 C 1.027344 1.707031 0.40625 2.851562 -0.214844 3.433594 Z M 9.023438 -9.816406 C 7.46875 -9.371094 6.035156 -8.59375 4.734375 -7.527344 C 4.871094 -8.089844 5.003906 -8.574219 5.101562 -8.945312 C 5.199219 -9.3125 5.257812 -9.621094 5.316406 -9.835938 C 5.375 -10.089844 5.316406 -10.222656 5.140625 -10.28125 C 4.964844 -10.320312 4.792969 -10.261719 4.617188 -10.089844 C 3.996094 -9.449219 3.453125 -8.984375 2.988281 -8.671875 C 2.523438 -8.34375 2.132812 -8.128906 1.804688 -8.03125 C 1.472656 -7.933594 1.222656 -7.875 1.027344 -7.875 C 0.777344 -7.875 0.621094 -7.992188 0.582031 -8.226562 C 0.523438 -8.441406 0.542969 -8.710938 0.621094 -9.023438 C 0.699219 -9.3125 0.796875 -9.605469 0.910156 -9.855469 C 0.96875 -10.03125 0.96875 -10.167969 0.875 -10.242188 C 0.777344 -10.320312 0.640625 -10.339844 0.503906 -10.300781 C 0.367188 -10.261719 0.253906 -10.167969 0.175781 -9.992188 C -0.0390625 -9.507812 -0.175781 -9.058594 -0.234375 -8.613281 C -0.292969 -8.167969 -0.253906 -7.820312 -0.0976562 -7.527344 C 0.0585938 -7.238281 0.367188 -7.082031 0.835938 -7.082031 C 1.203125 -7.082031 1.667969 -7.199219 2.25 -7.429688 C 2.8125 -7.664062 3.492188 -8.109375 4.269531 -8.789062 C 4.25 -8.691406 4.230469 -8.613281 4.210938 -8.515625 L 3.707031 -6.597656 C 2.132812 -5.042969 0.890625 -3.394531 -0.0585938 -1.667969 C -1.007812 0.0585938 -1.570312 1.511719 -1.707031 2.695312 C -1.765625 3.589844 -1.589844 4.113281 -1.164062 4.289062 C -0.738281 4.460938 -0.292969 4.347656 0.195312 3.976562 C 0.949219 3.316406 1.6875 2.054688 2.40625 0.175781 C 3.105469 -1.6875 3.785156 -3.859375 4.421875 -6.324219 C 5.800781 -7.625 7.351562 -8.554688 9.078125 -9.078125 C 9.253906 -9.136719 9.371094 -9.253906 9.429688 -9.390625 C 9.488281 -9.527344 9.46875 -9.640625 9.410156 -9.738281 C 9.332031 -9.835938 9.195312 -9.875 9.023438 -9.816406 Z M 9.023438 -9.816406 "/></g></g></g><g fill="#000000" fill-opacity="1"><g transform="translate(74.719893, 24.154985)"><g/></g></g><g fill="#000000" fill-opacity="1"><g transform="translate(84.609951, 24.154985)"><g><path d="M 17.867188 -22.660156 C 17.90625 -22.835938 17.867188 -22.953125 17.773438 -23.011719 C 17.65625 -23.066406 17.519531 -23.066406 17.382812 -23.011719 C 17.246094 -22.953125 17.152344 -22.835938 17.09375 -22.660156 C 17.035156 -22.464844 16.9375 -22.078125 16.800781 -21.476562 C 16.53125 -20.234375 16.121094 -18.527344 15.578125 -16.335938 C 15.015625 -14.144531 14.375 -11.914062 13.640625 -9.605469 C 12.902344 -7.292969 12.105469 -5.355469 11.273438 -3.765625 C 10.4375 -2.152344 9.585938 -1.339844 8.710938 -1.28125 C 7.800781 -1.339844 7.140625 -2.074219 6.75 -3.453125 C 6.34375 -4.832031 6.128906 -6.558594 6.074219 -8.652344 C 6.015625 -10.75 6.074219 -12.902344 6.207031 -15.113281 C 6.34375 -17.324219 6.480469 -19.285156 6.636719 -20.992188 C 6.695312 -21.632812 6.730469 -22.214844 6.769531 -22.738281 C 6.769531 -22.875 6.710938 -22.972656 6.617188 -23.03125 C 6.519531 -23.066406 6.402344 -23.066406 6.285156 -23.011719 C 6.148438 -22.953125 6.054688 -22.855469 5.996094 -22.71875 C 5.585938 -21.652344 5.003906 -20.0625 4.289062 -17.945312 C 3.570312 -15.8125 2.851562 -13.542969 2.132812 -11.117188 C 1.417969 -8.691406 0.890625 -6.519531 0.542969 -4.597656 C 0.175781 -2.675781 0.15625 -1.398438 0.484375 -0.777344 C 0.582031 -0.621094 0.699219 -0.523438 0.816406 -0.484375 C 0.929688 -0.425781 1.046875 -0.40625 1.144531 -0.40625 C 1.320312 -0.40625 1.457031 -0.464844 1.550781 -0.601562 C 1.648438 -0.738281 1.667969 -0.855469 1.648438 -0.988281 C 1.628906 -1.125 1.53125 -1.183594 1.359375 -1.183594 C 1.339844 -1.183594 1.339844 -1.183594 1.320312 -1.183594 C 1.300781 -1.183594 1.300781 -1.203125 1.28125 -1.222656 C 1.261719 -1.242188 1.242188 -1.261719 1.222656 -1.28125 C 0.929688 -1.882812 1.007812 -3.257812 1.457031 -5.414062 C 1.902344 -7.566406 2.542969 -9.972656 3.355469 -12.648438 C 4.171875 -15.308594 4.964844 -17.753906 5.761719 -19.945312 C 5.546875 -17.636719 5.394531 -15.347656 5.257812 -13.039062 C 5.121094 -10.730469 5.121094 -8.632812 5.21875 -6.730469 C 5.316406 -4.8125 5.625 -3.296875 6.128906 -2.152344 C 6.636719 -1.007812 7.429688 -0.464844 8.496094 -0.484375 C 9.527344 -0.582031 10.496094 -1.320312 11.386719 -2.695312 C 12.28125 -4.074219 13.097656 -5.78125 13.832031 -7.839844 C 14.550781 -9.875 15.210938 -11.988281 15.773438 -14.144531 C 16.335938 -16.296875 16.820312 -18.238281 17.207031 -19.925781 C 17.460938 -21.070312 17.695312 -21.980469 17.867188 -22.660156 Z M 17.867188 -22.660156 "/></g></g></g><g fill="#000000" fill-opacity="1"><g transform="translate(100.745508, 24.154985)"><g><path d="M 2.171875 -8.808594 C 1.980469 -8.886719 1.863281 -8.984375 1.804688 -9.117188 C 1.746094 -9.253906 1.726562 -9.371094 1.785156 -9.488281 C 1.84375 -9.621094 1.921875 -9.699219 2.019531 -9.699219 C 2.113281 -9.699219 2.171875 -9.621094 2.230469 -9.488281 C 2.269531 -9.332031 2.25 -9.097656 2.171875 -8.808594 Z M 6.035156 -9.621094 C 5.023438 -8.925781 3.976562 -8.613281 2.910156 -8.671875 C 3.125 -9.390625 3.125 -9.875 2.871094 -10.167969 C 2.621094 -10.457031 2.289062 -10.535156 1.902344 -10.4375 C 1.511719 -10.339844 1.222656 -10.050781 1.027344 -9.566406 C 0.910156 -9.273438 0.910156 -8.984375 1.007812 -8.710938 C 1.105469 -8.421875 1.359375 -8.207031 1.746094 -8.070312 C 1.570312 -7.894531 1.359375 -7.800781 1.125 -7.800781 C 0.757812 -7.800781 0.582031 -7.972656 0.5625 -8.304688 C 0.542969 -8.632812 0.621094 -9.003906 0.796875 -9.371094 C 0.855469 -9.546875 0.855469 -9.679688 0.757812 -9.757812 C 0.660156 -9.835938 0.542969 -9.855469 0.40625 -9.835938 C 0.273438 -9.796875 0.15625 -9.699219 0.0585938 -9.527344 C -0.273438 -8.730469 -0.347656 -8.109375 -0.136719 -7.664062 C 0.078125 -7.21875 0.425781 -7.003906 0.910156 -7.003906 C 1.492188 -7.003906 2.039062 -7.3125 2.523438 -7.914062 C 3.105469 -7.859375 3.746094 -7.914062 4.460938 -8.089844 C 5.160156 -8.265625 5.820312 -8.59375 6.441406 -9.058594 C 6.578125 -9.195312 6.65625 -9.3125 6.636719 -9.449219 C 6.617188 -9.585938 6.558594 -9.660156 6.441406 -9.71875 C 6.324219 -9.777344 6.1875 -9.738281 6.035156 -9.621094 Z M 6.035156 -9.621094 "/></g></g></g><g fill="#000000" fill-opacity="1"><g transform="translate(106.698186, 24.154985)"><g><path d="M 0.777344 -10.863281 L 0.738281 -10.863281 C 0.640625 -10.882812 0.5625 -10.921875 0.523438 -11.019531 C 0.464844 -11.097656 0.464844 -11.195312 0.503906 -11.292969 C 0.523438 -11.371094 0.542969 -11.445312 0.5625 -11.503906 L 0.582031 -11.503906 C 0.621094 -11.660156 0.679688 -11.835938 0.777344 -12.007812 C 0.835938 -12.105469 0.910156 -12.203125 1.007812 -12.261719 C 1.105469 -12.320312 1.203125 -12.339844 1.300781 -12.320312 C 1.398438 -12.300781 1.472656 -12.242188 1.511719 -12.164062 C 1.550781 -12.066406 1.550781 -11.96875 1.492188 -11.875 L 1.339844 -11.445312 L 1.261719 -11.214844 C 1.222656 -11.117188 1.164062 -11.019531 1.066406 -10.960938 C 0.96875 -10.902344 0.875 -10.863281 0.777344 -10.863281 Z M 4.578125 -9.585938 C 3.238281 -8.363281 2.152344 -7.78125 1.339844 -7.859375 C 0.929688 -7.914062 0.699219 -8.109375 0.660156 -8.476562 C 0.621094 -8.847656 0.679688 -9.292969 0.855469 -9.835938 C 0.890625 -10.050781 0.855469 -10.1875 0.757812 -10.242188 C 0.660156 -10.300781 0.523438 -10.300781 0.386719 -10.242188 C 0.234375 -10.1875 0.117188 -10.050781 0.0585938 -9.835938 C -0.0976562 -9.3125 -0.175781 -8.828125 -0.175781 -8.421875 C -0.175781 -8.011719 -0.0585938 -7.683594 0.15625 -7.429688 C 0.367188 -7.179688 0.757812 -7.0625 1.300781 -7.0625 C 2.328125 -7.0625 3.589844 -7.742188 5.042969 -9.078125 C 5.179688 -9.214844 5.238281 -9.351562 5.21875 -9.488281 C 5.199219 -9.605469 5.121094 -9.679688 5.003906 -9.71875 C 4.871094 -9.757812 4.734375 -9.71875 4.578125 -9.585938 Z M 4.578125 -9.585938 "/></g></g></g><g fill="#000000" fill-opacity="1"><g transform="translate(111.196162, 24.154985)"><g><path d="M 1.707031 -5.585938 C 1.085938 -5.042969 0.5625 -4.734375 0.136719 -4.65625 C -0.292969 -4.578125 -0.503906 -4.617188 -0.523438 -4.792969 C -0.503906 -4.984375 -0.367188 -5.199219 -0.117188 -5.433594 C 0.136719 -5.664062 0.40625 -5.898438 0.71875 -6.113281 C 1.007812 -6.324219 1.261719 -6.5 1.472656 -6.617188 C 1.589844 -6.480469 1.6875 -6.304688 1.785156 -6.113281 C 1.882812 -5.917969 1.84375 -5.742188 1.707031 -5.585938 Z M 6.945312 -9.816406 C 5.023438 -9.15625 3.316406 -8.421875 1.804688 -7.585938 C 1.667969 -7.722656 1.550781 -7.859375 1.417969 -7.992188 C 1.164062 -8.226562 0.988281 -8.441406 0.855469 -8.613281 C 0.71875 -8.828125 0.660156 -9.023438 0.699219 -9.175781 C 0.738281 -9.332031 0.816406 -9.46875 0.910156 -9.566406 C 1.125 -9.796875 1.417969 -9.992188 1.785156 -10.148438 C 2.132812 -10.300781 2.445312 -10.378906 2.714844 -10.378906 C 2.96875 -10.378906 3.085938 -10.261719 3.046875 -10.03125 C 3.007812 -9.855469 3.046875 -9.757812 3.164062 -9.699219 C 3.257812 -9.640625 3.394531 -9.640625 3.53125 -9.699219 C 3.667969 -9.757812 3.765625 -9.855469 3.820312 -10.03125 C 3.957031 -10.59375 3.800781 -10.941406 3.394531 -11.078125 C 2.988281 -11.214844 2.484375 -11.175781 1.882812 -10.960938 C 1.28125 -10.75 0.757812 -10.417969 0.328125 -9.953125 C -0.195312 -9.3125 -0.273438 -8.671875 0.136719 -8.070312 C 0.308594 -7.859375 0.503906 -7.625 0.757812 -7.371094 C 0.855469 -7.292969 0.929688 -7.21875 1.007812 -7.140625 C 0.503906 -6.847656 0 -6.480469 -0.484375 -6.035156 C -0.988281 -5.585938 -1.28125 -5.121094 -1.339844 -4.636719 C -1.339844 -4.074219 -0.988281 -3.820312 -0.273438 -3.839844 C 0.425781 -3.859375 1.242188 -4.269531 2.171875 -5.082031 C 2.503906 -5.414062 2.65625 -5.742188 2.636719 -6.09375 C 2.621094 -6.421875 2.484375 -6.75 2.269531 -7.042969 C 3.6875 -7.800781 5.277344 -8.476562 7.003906 -9.078125 C 7.179688 -9.136719 7.292969 -9.253906 7.351562 -9.390625 C 7.390625 -9.527344 7.371094 -9.660156 7.3125 -9.757812 C 7.238281 -9.855469 7.121094 -9.875 6.945312 -9.816406 Z M 6.945312 -9.816406 "/></g></g></g><g fill="#000000" fill-opacity="1"><g transform="translate(117.905283, 24.154985)"><g><path d="M 1.804688 -9.546875 C 1.628906 -9.449219 1.339844 -9.390625 0.929688 -9.371094 C 1.222656 -9.546875 1.511719 -9.605469 1.804688 -9.546875 Z M 5.703125 -9.640625 C 3.9375 -8.34375 2.425781 -7.742188 1.164062 -7.839844 C 0.875 -7.859375 0.679688 -7.914062 0.542969 -8.011719 C 0.40625 -8.109375 0.328125 -8.207031 0.308594 -8.324219 C 0.273438 -8.421875 0.273438 -8.535156 0.292969 -8.632812 C 1.046875 -8.535156 1.648438 -8.632812 2.113281 -8.90625 C 2.5625 -9.175781 2.753906 -9.488281 2.695312 -9.855469 C 2.601562 -10.1875 2.328125 -10.359375 1.882812 -10.359375 C 1.4375 -10.339844 0.96875 -10.203125 0.503906 -9.914062 C 0.0195312 -9.621094 -0.292969 -9.195312 -0.464844 -8.671875 C -0.601562 -8.1875 -0.5625 -7.800781 -0.308594 -7.507812 C -0.0585938 -7.21875 0.40625 -7.0625 1.085938 -7.0625 C 2.621094 -7.0625 4.269531 -7.722656 6.054688 -9.058594 C 6.207031 -9.175781 6.285156 -9.3125 6.285156 -9.449219 C 6.265625 -9.585938 6.207031 -9.679688 6.113281 -9.738281 C 5.996094 -9.796875 5.859375 -9.757812 5.703125 -9.640625 Z M 5.703125 -9.640625 "/></g></g></g></svg>