<svg xmlns="http://www.w3.org/2000/svg" xmlns:xlink="http://www.w3.org/1999/xlink" width="180" zoomAndPan="magnify" viewBox="0 0 135 30.000001" height="40" preserveAspectRatio="xMidYMid meet" version="1.0"><defs><g/></defs><g fill="#fbfaf9" fill-opacity="1"><g transform="translate(9.092619, 23.941954)"><g><path d="M 26.386719 -10 C 25.15625 -10.097656 23.457031 -10.15625 21.289062 -10.195312 C 22.148438 -13.730469 23.007812 -16.972656 23.867188 -19.960938 L 24.648438 -22.8125 C 24.6875 -22.988281 24.648438 -23.105469 24.550781 -23.164062 C 24.433594 -23.222656 24.296875 -23.222656 24.160156 -23.164062 C 24.023438 -23.105469 23.90625 -22.988281 23.847656 -22.8125 C 23.652344 -22.050781 23.398438 -21.152344 23.105469 -20.078125 C 22.226562 -17.011719 21.367188 -13.710938 20.507812 -10.195312 C 17.558594 -10.234375 14.433594 -10.214844 11.171875 -10.15625 C 11.191406 -10.273438 11.230469 -10.390625 11.25 -10.488281 C 11.914062 -13.085938 12.460938 -15.332031 12.890625 -17.207031 C 13.300781 -19.082031 13.535156 -20.527344 13.59375 -21.542969 C 13.632812 -22.558594 13.398438 -23.066406 12.871094 -23.066406 C 12.363281 -23.066406 11.738281 -22.734375 10.996094 -22.070312 C 10.234375 -21.40625 9.570312 -20.683594 8.964844 -19.902344 C 8.359375 -19.121094 7.988281 -18.496094 7.851562 -18.027344 C 7.792969 -17.792969 7.792969 -17.617188 7.890625 -17.5 C 7.96875 -17.363281 8.105469 -17.304688 8.28125 -17.304688 C 8.417969 -17.304688 8.554688 -17.363281 8.652344 -17.460938 C 8.75 -17.558594 8.789062 -17.675781 8.808594 -17.792969 C 8.808594 -17.910156 8.75 -18.007812 8.632812 -18.066406 C 8.710938 -18.300781 8.945312 -18.710938 9.355469 -19.277344 C 9.765625 -19.84375 10.292969 -20.429688 10.9375 -21.074219 C 11.816406 -21.894531 12.382812 -22.285156 12.636719 -22.265625 C 12.851562 -21.992188 12.8125 -21.09375 12.558594 -19.570312 C 12.285156 -18.027344 11.933594 -16.40625 11.523438 -14.667969 C 11.09375 -12.929688 10.761719 -11.601562 10.507812 -10.683594 C 10.449219 -10.429688 10.410156 -10.253906 10.371094 -10.136719 C 5.9375 -10.039062 2.636719 -9.824219 0.488281 -9.53125 C 0.3125 -9.492188 0.175781 -9.414062 0.117188 -9.277344 C 0.0390625 -9.140625 0.0195312 -9.003906 0.078125 -8.90625 C 0.117188 -8.789062 0.234375 -8.730469 0.410156 -8.75 C 2.539062 -9.042969 5.78125 -9.257812 10.175781 -9.355469 C 9.296875 -6.015625 8.867188 -3.730469 8.847656 -2.539062 C 8.867188 -2.363281 8.945312 -2.285156 9.082031 -2.265625 C 9.21875 -2.246094 9.335938 -2.285156 9.472656 -2.382812 C 9.589844 -2.480469 9.648438 -2.597656 9.648438 -2.773438 C 9.628906 -3.261719 9.765625 -4.101562 10.019531 -5.292969 C 10.273438 -6.464844 10.585938 -7.832031 10.976562 -9.375 C 14.257812 -9.433594 17.363281 -9.453125 20.3125 -9.414062 C 20.136719 -8.691406 19.960938 -7.8125 19.746094 -6.816406 C 19.53125 -5.820312 19.375 -4.824219 19.277344 -3.847656 C 19.179688 -2.871094 19.179688 -2.050781 19.296875 -1.40625 C 19.414062 -0.742188 19.726562 -0.410156 20.214844 -0.410156 C 20.390625 -0.410156 20.507812 -0.46875 20.605469 -0.605469 C 20.703125 -0.722656 20.742188 -0.839844 20.722656 -0.976562 C 20.703125 -1.09375 20.605469 -1.171875 20.429688 -1.191406 C 20.15625 -1.25 20.019531 -1.621094 20.039062 -2.34375 C 20.039062 -3.046875 20.117188 -3.886719 20.253906 -4.882812 C 20.390625 -5.859375 20.566406 -6.777344 20.742188 -7.636719 C 20.917969 -8.476562 21.035156 -9.082031 21.113281 -9.414062 C 23.242188 -9.375 24.921875 -9.316406 26.113281 -9.21875 C 26.289062 -9.21875 26.425781 -9.277344 26.523438 -9.394531 C 26.621094 -9.511719 26.660156 -9.628906 26.640625 -9.765625 C 26.621094 -9.902344 26.542969 -9.980469 26.386719 -10 Z M 26.386719 -10 "/></g></g></g><g fill="#fbfaf9" fill-opacity="1"><g transform="translate(37.310972, 23.941954)"><g><path d="M 1.816406 -9.609375 C 1.640625 -9.511719 1.347656 -9.453125 0.9375 -9.433594 C 1.230469 -9.609375 1.523438 -9.667969 1.816406 -9.609375 Z M 5.742188 -9.707031 C 3.964844 -8.398438 2.441406 -7.792969 1.171875 -7.890625 C 0.878906 -7.910156 0.683594 -7.96875 0.546875 -8.066406 C 0.410156 -8.164062 0.332031 -8.261719 0.3125 -8.378906 C 0.273438 -8.476562 0.273438 -8.59375 0.292969 -8.691406 C 1.054688 -8.59375 1.660156 -8.691406 2.128906 -8.964844 C 2.578125 -9.238281 2.773438 -9.550781 2.714844 -9.921875 C 2.617188 -10.253906 2.34375 -10.429688 1.894531 -10.429688 C 1.445312 -10.410156 0.976562 -10.273438 0.507812 -9.980469 C 0.0195312 -9.6875 -0.292969 -9.257812 -0.46875 -8.730469 C -0.605469 -8.242188 -0.566406 -7.851562 -0.3125 -7.558594 C -0.0585938 -7.265625 0.410156 -7.109375 1.09375 -7.109375 C 2.636719 -7.109375 4.296875 -7.773438 6.09375 -9.121094 C 6.25 -9.238281 6.328125 -9.375 6.328125 -9.511719 C 6.308594 -9.648438 6.25 -9.746094 6.152344 -9.804688 C 6.035156 -9.863281 5.898438 -9.824219 5.742188 -9.707031 Z M 5.742188 -9.707031 "/></g></g></g><g fill="#fbfaf9" fill-opacity="1"><g transform="translate(42.953133, 23.941954)"><g><path d="M 8.632812 -9.726562 C 8.496094 -9.628906 8.359375 -9.511719 8.222656 -9.414062 C 7.773438 -9.0625 7.304688 -8.730469 6.796875 -8.398438 C 6.269531 -8.066406 5.820312 -7.890625 5.410156 -7.890625 C 5.15625 -7.890625 5 -7.96875 4.921875 -8.105469 C 4.824219 -8.242188 4.785156 -8.515625 4.785156 -8.886719 C 4.804688 -9.101562 4.785156 -9.316406 4.765625 -9.550781 C 4.726562 -9.765625 4.628906 -9.960938 4.492188 -10.117188 C 4.355469 -10.273438 4.101562 -10.351562 3.769531 -10.351562 C 3.28125 -10.351562 2.734375 -10.15625 2.167969 -9.765625 C 1.601562 -9.355469 1.015625 -8.886719 0.429688 -8.320312 C 0.527344 -8.691406 0.625 -9.0625 0.722656 -9.414062 C 0.78125 -9.628906 0.839844 -9.804688 0.878906 -9.960938 C 0.917969 -10.136719 0.878906 -10.253906 0.78125 -10.3125 C 0.664062 -10.371094 0.527344 -10.371094 0.390625 -10.3125 C 0.253906 -10.253906 0.15625 -10.136719 0.0976562 -9.960938 C 0.0390625 -9.785156 -0.0195312 -9.589844 -0.078125 -9.375 C -0.175781 -9.023438 -0.253906 -8.671875 -0.351562 -8.320312 C -0.449219 -7.96875 -0.488281 -7.695312 -0.507812 -7.480469 C -0.527344 -7.226562 -0.449219 -7.089844 -0.273438 -7.03125 C -0.117188 -6.972656 0.0976562 -7.050781 0.351562 -7.285156 C 0.9375 -7.851562 1.523438 -8.378906 2.109375 -8.867188 C 2.675781 -9.335938 3.164062 -9.570312 3.554688 -9.570312 C 3.730469 -9.570312 3.847656 -9.511719 3.90625 -9.394531 C 3.964844 -9.257812 3.984375 -9.023438 3.984375 -8.671875 C 3.964844 -8.457031 3.984375 -8.222656 4.023438 -7.988281 C 4.0625 -7.734375 4.160156 -7.539062 4.335938 -7.363281 C 4.511719 -7.1875 4.785156 -7.109375 5.195312 -7.109375 C 5.742188 -7.109375 6.308594 -7.304688 6.914062 -7.675781 C 7.519531 -8.046875 8.085938 -8.4375 8.613281 -8.847656 C 8.75 -8.945312 8.867188 -9.042969 9.003906 -9.140625 C 9.160156 -9.277344 9.238281 -9.394531 9.238281 -9.53125 C 9.21875 -9.667969 9.160156 -9.746094 9.042969 -9.804688 C 8.925781 -9.863281 8.789062 -9.824219 8.632812 -9.726562 Z M 8.632812 -9.726562 "/></g></g></g><g fill="#fbfaf9" fill-opacity="1"><g transform="translate(51.446611, 23.941954)"><g><path d="M 6.40625 -9.785156 C 5.878906 -9.492188 5.351562 -9.277344 4.804688 -9.179688 C 4.238281 -9.0625 3.828125 -9.023438 3.554688 -9.082031 C 3.398438 -9.121094 3.28125 -9.199219 3.222656 -9.335938 C 3.164062 -9.472656 3.105469 -9.609375 3.066406 -9.765625 C 3.027344 -9.980469 2.96875 -10.15625 2.871094 -10.3125 C 2.773438 -10.46875 2.578125 -10.546875 2.285156 -10.546875 C 1.933594 -10.546875 1.621094 -10.410156 1.367188 -10.136719 C 1.113281 -9.84375 0.878906 -9.511719 0.683594 -9.140625 C 0.742188 -9.394531 0.820312 -9.667969 0.917969 -10 C 0.9375 -10.175781 0.898438 -10.292969 0.800781 -10.351562 C 0.683594 -10.410156 0.566406 -10.410156 0.429688 -10.351562 C 0.292969 -10.292969 0.175781 -10.175781 0.117188 -10 C -0.175781 -8.964844 -0.332031 -8.203125 -0.351562 -7.753906 C -0.390625 -7.285156 -0.253906 -7.050781 0.078125 -7.050781 C 0.292969 -7.050781 0.488281 -7.148438 0.625 -7.363281 C 0.761719 -7.558594 0.898438 -7.832031 1.035156 -8.183594 C 1.113281 -8.359375 1.210938 -8.554688 1.347656 -8.808594 C 1.464844 -9.042969 1.582031 -9.257812 1.71875 -9.472656 C 1.855469 -9.667969 1.972656 -9.765625 2.070312 -9.765625 C 2.128906 -9.765625 2.167969 -9.726562 2.1875 -9.667969 C 2.207031 -9.609375 2.246094 -9.511719 2.265625 -9.414062 C 2.324219 -9.199219 2.402344 -8.984375 2.539062 -8.769531 C 2.65625 -8.554688 2.871094 -8.398438 3.183594 -8.320312 C 3.554688 -8.242188 4.082031 -8.28125 4.765625 -8.417969 C 5.429688 -8.554688 6.074219 -8.789062 6.699219 -9.140625 C 6.875 -9.238281 6.953125 -9.375 6.972656 -9.511719 C 6.972656 -9.648438 6.914062 -9.746094 6.816406 -9.824219 C 6.71875 -9.882812 6.582031 -9.882812 6.40625 -9.785156 Z M 6.40625 -9.785156 "/></g></g></g><g fill="#fbfaf9" fill-opacity="1"><g transform="translate(57.713718, 23.941954)"><g><path d="M 6.40625 -9.785156 C 5.878906 -9.492188 5.351562 -9.277344 4.804688 -9.179688 C 4.238281 -9.0625 3.828125 -9.023438 3.554688 -9.082031 C 3.398438 -9.121094 3.28125 -9.199219 3.222656 -9.335938 C 3.164062 -9.472656 3.105469 -9.609375 3.066406 -9.765625 C 3.027344 -9.980469 2.96875 -10.15625 2.871094 -10.3125 C 2.773438 -10.46875 2.578125 -10.546875 2.285156 -10.546875 C 1.933594 -10.546875 1.621094 -10.410156 1.367188 -10.136719 C 1.113281 -9.84375 0.878906 -9.511719 0.683594 -9.140625 C 0.742188 -9.394531 0.820312 -9.667969 0.917969 -10 C 0.9375 -10.175781 0.898438 -10.292969 0.800781 -10.351562 C 0.683594 -10.410156 0.566406 -10.410156 0.429688 -10.351562 C 0.292969 -10.292969 0.175781 -10.175781 0.117188 -10 C -0.175781 -8.964844 -0.332031 -8.203125 -0.351562 -7.753906 C -0.390625 -7.285156 -0.253906 -7.050781 0.078125 -7.050781 C 0.292969 -7.050781 0.488281 -7.148438 0.625 -7.363281 C 0.761719 -7.558594 0.898438 -7.832031 1.035156 -8.183594 C 1.113281 -8.359375 1.210938 -8.554688 1.347656 -8.808594 C 1.464844 -9.042969 1.582031 -9.257812 1.71875 -9.472656 C 1.855469 -9.667969 1.972656 -9.765625 2.070312 -9.765625 C 2.128906 -9.765625 2.167969 -9.726562 2.1875 -9.667969 C 2.207031 -9.609375 2.246094 -9.511719 2.265625 -9.414062 C 2.324219 -9.199219 2.402344 -8.984375 2.539062 -8.769531 C 2.65625 -8.554688 2.871094 -8.398438 3.183594 -8.320312 C 3.554688 -8.242188 4.082031 -8.28125 4.765625 -8.417969 C 5.429688 -8.554688 6.074219 -8.789062 6.699219 -9.140625 C 6.875 -9.238281 6.953125 -9.375 6.972656 -9.511719 C 6.972656 -9.648438 6.914062 -9.746094 6.816406 -9.824219 C 6.71875 -9.882812 6.582031 -9.882812 6.40625 -9.785156 Z M 6.40625 -9.785156 "/></g></g></g><g fill="#fbfaf9" fill-opacity="1"><g transform="translate(63.980825, 23.941954)"><g><path d="M -0.214844 3.457031 C -0.507812 3.671875 -0.703125 3.671875 -0.800781 3.457031 C -0.917969 3.242188 -0.957031 2.949219 -0.898438 2.578125 C -0.800781 1.699219 -0.390625 0.527344 0.351562 -0.9375 C 1.09375 -2.382812 2.089844 -3.828125 3.359375 -5.253906 C 2.871094 -3.4375 2.304688 -1.679688 1.679688 0.0195312 C 1.035156 1.71875 0.410156 2.871094 -0.214844 3.457031 Z M 9.082031 -9.882812 C 7.519531 -9.433594 6.074219 -8.652344 4.765625 -7.578125 C 4.902344 -8.144531 5.039062 -8.632812 5.136719 -9.003906 C 5.234375 -9.375 5.292969 -9.6875 5.351562 -9.902344 C 5.410156 -10.15625 5.351562 -10.292969 5.175781 -10.351562 C 5 -10.390625 4.824219 -10.332031 4.648438 -10.15625 C 4.023438 -9.511719 3.476562 -9.042969 3.007812 -8.730469 C 2.539062 -8.398438 2.148438 -8.183594 1.816406 -8.085938 C 1.484375 -7.988281 1.230469 -7.929688 1.035156 -7.929688 C 0.78125 -7.929688 0.625 -8.046875 0.585938 -8.28125 C 0.527344 -8.496094 0.546875 -8.769531 0.625 -9.082031 C 0.703125 -9.375 0.800781 -9.667969 0.917969 -9.921875 C 0.976562 -10.097656 0.976562 -10.234375 0.878906 -10.3125 C 0.78125 -10.390625 0.644531 -10.410156 0.507812 -10.371094 C 0.371094 -10.332031 0.253906 -10.234375 0.175781 -10.058594 C -0.0390625 -9.570312 -0.175781 -9.121094 -0.234375 -8.671875 C -0.292969 -8.222656 -0.253906 -7.871094 -0.0976562 -7.578125 C 0.0585938 -7.285156 0.371094 -7.128906 0.839844 -7.128906 C 1.210938 -7.128906 1.679688 -7.246094 2.265625 -7.480469 C 2.832031 -7.714844 3.515625 -8.164062 4.296875 -8.847656 C 4.277344 -8.75 4.257812 -8.671875 4.238281 -8.574219 L 3.730469 -6.640625 C 2.148438 -5.078125 0.898438 -3.417969 -0.0585938 -1.679688 C -1.015625 0.0585938 -1.582031 1.523438 -1.71875 2.714844 C -1.777344 3.613281 -1.601562 4.140625 -1.171875 4.316406 C -0.742188 4.492188 -0.292969 4.375 0.195312 4.003906 C 0.957031 3.339844 1.699219 2.070312 2.421875 0.175781 C 3.125 -1.699219 3.808594 -3.886719 4.453125 -6.367188 C 5.839844 -7.675781 7.402344 -8.613281 9.140625 -9.140625 C 9.316406 -9.199219 9.433594 -9.316406 9.492188 -9.453125 C 9.550781 -9.589844 9.53125 -9.707031 9.472656 -9.804688 C 9.394531 -9.902344 9.257812 -9.941406 9.082031 -9.882812 Z M 9.082031 -9.882812 "/></g></g></g><g fill="#fbfaf9" fill-opacity="1"><g transform="translate(72.845363, 23.941954)"><g/></g></g><g fill="#fbfaf9" fill-opacity="1"><g transform="translate(82.803558, 23.941954)"><g><path d="M 17.988281 -22.8125 C 18.027344 -22.988281 17.988281 -23.105469 17.890625 -23.164062 C 17.773438 -23.222656 17.636719 -23.222656 17.5 -23.164062 C 17.363281 -23.105469 17.265625 -22.988281 17.207031 -22.8125 C 17.148438 -22.617188 17.050781 -22.226562 16.914062 -21.621094 C 16.640625 -20.371094 16.230469 -18.652344 15.683594 -16.445312 C 15.117188 -14.238281 14.472656 -11.992188 13.730469 -9.667969 C 12.988281 -7.34375 12.1875 -5.390625 11.347656 -3.789062 C 10.507812 -2.167969 9.648438 -1.347656 8.769531 -1.289062 C 7.851562 -1.347656 7.1875 -2.089844 6.796875 -3.476562 C 6.386719 -4.863281 6.171875 -6.601562 6.113281 -8.710938 C 6.054688 -10.820312 6.113281 -12.988281 6.25 -15.214844 C 6.386719 -17.441406 6.523438 -19.414062 6.679688 -21.132812 C 6.738281 -21.777344 6.777344 -22.363281 6.816406 -22.890625 C 6.816406 -23.027344 6.757812 -23.125 6.660156 -23.183594 C 6.5625 -23.222656 6.445312 -23.222656 6.328125 -23.164062 C 6.191406 -23.105469 6.09375 -23.007812 6.035156 -22.871094 C 5.625 -21.796875 5.039062 -20.195312 4.316406 -18.066406 C 3.59375 -15.917969 2.871094 -13.632812 2.148438 -11.191406 C 1.425781 -8.75 0.898438 -6.5625 0.546875 -4.628906 C 0.175781 -2.695312 0.15625 -1.40625 0.488281 -0.78125 C 0.585938 -0.625 0.703125 -0.527344 0.820312 -0.488281 C 0.9375 -0.429688 1.054688 -0.410156 1.152344 -0.410156 C 1.328125 -0.410156 1.464844 -0.46875 1.5625 -0.605469 C 1.660156 -0.742188 1.679688 -0.859375 1.660156 -0.996094 C 1.640625 -1.132812 1.542969 -1.191406 1.367188 -1.191406 C 1.347656 -1.191406 1.347656 -1.191406 1.328125 -1.191406 C 1.308594 -1.191406 1.308594 -1.210938 1.289062 -1.230469 C 1.269531 -1.25 1.25 -1.269531 1.230469 -1.289062 C 0.9375 -1.894531 1.015625 -3.28125 1.464844 -5.449219 C 1.914062 -7.617188 2.558594 -10.039062 3.378906 -12.734375 C 4.199219 -15.410156 5 -17.871094 5.800781 -20.078125 C 5.585938 -17.753906 5.429688 -15.449219 5.292969 -13.125 C 5.15625 -10.800781 5.15625 -8.691406 5.253906 -6.777344 C 5.351562 -4.84375 5.664062 -3.320312 6.171875 -2.167969 C 6.679688 -1.015625 7.480469 -0.46875 8.554688 -0.488281 C 9.589844 -0.585938 10.566406 -1.328125 11.464844 -2.714844 C 12.363281 -4.101562 13.183594 -5.820312 13.925781 -7.890625 C 14.648438 -9.941406 15.3125 -12.070312 15.878906 -14.238281 C 16.445312 -16.40625 16.933594 -18.359375 17.324219 -20.058594 C 17.578125 -21.210938 17.8125 -22.128906 17.988281 -22.8125 Z M 17.988281 -22.8125 "/></g></g></g><g fill="#fbfaf9" fill-opacity="1"><g transform="translate(99.050277, 23.941954)"><g><path d="M 2.1875 -8.867188 C 1.992188 -8.945312 1.875 -9.042969 1.816406 -9.179688 C 1.757812 -9.316406 1.738281 -9.433594 1.796875 -9.550781 C 1.855469 -9.6875 1.933594 -9.765625 2.03125 -9.765625 C 2.128906 -9.765625 2.1875 -9.6875 2.246094 -9.550781 C 2.285156 -9.394531 2.265625 -9.160156 2.1875 -8.867188 Z M 6.074219 -9.6875 C 5.058594 -8.984375 4.003906 -8.671875 2.929688 -8.730469 C 3.144531 -9.453125 3.144531 -9.941406 2.890625 -10.234375 C 2.636719 -10.527344 2.304688 -10.605469 1.914062 -10.507812 C 1.523438 -10.410156 1.230469 -10.117188 1.035156 -9.628906 C 0.917969 -9.335938 0.917969 -9.042969 1.015625 -8.769531 C 1.113281 -8.476562 1.367188 -8.261719 1.757812 -8.125 C 1.582031 -7.949219 1.367188 -7.851562 1.132812 -7.851562 C 0.761719 -7.851562 0.585938 -8.027344 0.566406 -8.359375 C 0.546875 -8.691406 0.625 -9.0625 0.800781 -9.433594 C 0.859375 -9.609375 0.859375 -9.746094 0.761719 -9.824219 C 0.664062 -9.902344 0.546875 -9.921875 0.410156 -9.902344 C 0.273438 -9.863281 0.15625 -9.765625 0.0585938 -9.589844 C -0.273438 -8.789062 -0.351562 -8.164062 -0.136719 -7.714844 C 0.078125 -7.265625 0.429688 -7.050781 0.917969 -7.050781 C 1.503906 -7.050781 2.050781 -7.363281 2.539062 -7.96875 C 3.125 -7.910156 3.769531 -7.96875 4.492188 -8.144531 C 5.195312 -8.320312 5.859375 -8.652344 6.484375 -9.121094 C 6.621094 -9.257812 6.699219 -9.375 6.679688 -9.511719 C 6.660156 -9.648438 6.601562 -9.726562 6.484375 -9.785156 C 6.367188 -9.84375 6.230469 -9.804688 6.074219 -9.6875 Z M 6.074219 -9.6875 "/></g></g></g><g fill="#fbfaf9" fill-opacity="1"><g transform="translate(105.043975, 23.941954)"><g><path d="M 0.78125 -10.9375 L 0.742188 -10.9375 C 0.644531 -10.957031 0.566406 -10.996094 0.527344 -11.09375 C 0.46875 -11.171875 0.46875 -11.269531 0.507812 -11.367188 C 0.527344 -11.445312 0.546875 -11.523438 0.566406 -11.582031 L 0.585938 -11.582031 C 0.625 -11.738281 0.683594 -11.914062 0.78125 -12.089844 C 0.839844 -12.1875 0.917969 -12.285156 1.015625 -12.34375 C 1.113281 -12.402344 1.210938 -12.421875 1.308594 -12.402344 C 1.40625 -12.382812 1.484375 -12.324219 1.523438 -12.246094 C 1.5625 -12.148438 1.5625 -12.050781 1.503906 -11.953125 L 1.347656 -11.523438 L 1.269531 -11.289062 C 1.230469 -11.191406 1.171875 -11.09375 1.074219 -11.035156 C 0.976562 -10.976562 0.878906 -10.9375 0.78125 -10.9375 Z M 4.609375 -9.648438 C 3.261719 -8.417969 2.167969 -7.832031 1.347656 -7.910156 C 0.9375 -7.96875 0.703125 -8.164062 0.664062 -8.535156 C 0.625 -8.90625 0.683594 -9.355469 0.859375 -9.902344 C 0.898438 -10.117188 0.859375 -10.253906 0.761719 -10.3125 C 0.664062 -10.371094 0.527344 -10.371094 0.390625 -10.3125 C 0.234375 -10.253906 0.117188 -10.117188 0.0585938 -9.902344 C -0.0976562 -9.375 -0.175781 -8.886719 -0.175781 -8.476562 C -0.175781 -8.066406 -0.0585938 -7.734375 0.15625 -7.480469 C 0.371094 -7.226562 0.761719 -7.109375 1.308594 -7.109375 C 2.34375 -7.109375 3.613281 -7.792969 5.078125 -9.140625 C 5.214844 -9.277344 5.273438 -9.414062 5.253906 -9.550781 C 5.234375 -9.667969 5.15625 -9.746094 5.039062 -9.785156 C 4.902344 -9.824219 4.765625 -9.785156 4.609375 -9.648438 Z M 4.609375 -9.648438 "/></g></g></g><g fill="#fbfaf9" fill-opacity="1"><g transform="translate(109.572952, 23.941954)"><g><path d="M 1.71875 -5.625 C 1.09375 -5.078125 0.566406 -4.765625 0.136719 -4.6875 C -0.292969 -4.609375 -0.507812 -4.648438 -0.527344 -4.824219 C -0.507812 -5.019531 -0.371094 -5.234375 -0.117188 -5.46875 C 0.136719 -5.703125 0.410156 -5.9375 0.722656 -6.152344 C 1.015625 -6.367188 1.269531 -6.542969 1.484375 -6.660156 C 1.601562 -6.523438 1.699219 -6.347656 1.796875 -6.152344 C 1.894531 -5.957031 1.855469 -5.78125 1.71875 -5.625 Z M 6.992188 -9.882812 C 5.058594 -9.21875 3.339844 -8.476562 1.816406 -7.636719 C 1.679688 -7.773438 1.5625 -7.910156 1.425781 -8.046875 C 1.171875 -8.28125 0.996094 -8.496094 0.859375 -8.671875 C 0.722656 -8.886719 0.664062 -9.082031 0.703125 -9.238281 C 0.742188 -9.394531 0.820312 -9.53125 0.917969 -9.628906 C 1.132812 -9.863281 1.425781 -10.058594 1.796875 -10.214844 C 2.148438 -10.371094 2.460938 -10.449219 2.734375 -10.449219 C 2.988281 -10.449219 3.105469 -10.332031 3.066406 -10.097656 C 3.027344 -9.921875 3.066406 -9.824219 3.183594 -9.765625 C 3.28125 -9.707031 3.417969 -9.707031 3.554688 -9.765625 C 3.691406 -9.824219 3.789062 -9.921875 3.847656 -10.097656 C 3.984375 -10.664062 3.828125 -11.015625 3.417969 -11.152344 C 3.007812 -11.289062 2.5 -11.25 1.894531 -11.035156 C 1.289062 -10.820312 0.761719 -10.488281 0.332031 -10.019531 C -0.195312 -9.375 -0.273438 -8.730469 0.136719 -8.125 C 0.3125 -7.910156 0.507812 -7.675781 0.761719 -7.421875 C 0.859375 -7.34375 0.9375 -7.265625 1.015625 -7.1875 C 0.507812 -6.894531 0 -6.523438 -0.488281 -6.074219 C -0.996094 -5.625 -1.289062 -5.15625 -1.347656 -4.667969 C -1.347656 -4.101562 -0.996094 -3.847656 -0.273438 -3.867188 C 0.429688 -3.886719 1.25 -4.296875 2.1875 -5.117188 C 2.519531 -5.449219 2.675781 -5.78125 2.65625 -6.132812 C 2.636719 -6.464844 2.5 -6.796875 2.285156 -7.089844 C 3.710938 -7.851562 5.3125 -8.535156 7.050781 -9.140625 C 7.226562 -9.199219 7.34375 -9.316406 7.402344 -9.453125 C 7.441406 -9.589844 7.421875 -9.726562 7.363281 -9.824219 C 7.285156 -9.921875 7.167969 -9.941406 6.992188 -9.882812 Z M 6.992188 -9.882812 "/></g></g></g><g fill="#fbfaf9" fill-opacity="1"><g transform="translate(116.328296, 23.941954)"><g><path d="M 1.816406 -9.609375 C 1.640625 -9.511719 1.347656 -9.453125 0.9375 -9.433594 C 1.230469 -9.609375 1.523438 -9.667969 1.816406 -9.609375 Z M 5.742188 -9.707031 C 3.964844 -8.398438 2.441406 -7.792969 1.171875 -7.890625 C 0.878906 -7.910156 0.683594 -7.96875 0.546875 -8.066406 C 0.410156 -8.164062 0.332031 -8.261719 0.3125 -8.378906 C 0.273438 -8.476562 0.273438 -8.59375 0.292969 -8.691406 C 1.054688 -8.59375 1.660156 -8.691406 2.128906 -8.964844 C 2.578125 -9.238281 2.773438 -9.550781 2.714844 -9.921875 C 2.617188 -10.253906 2.34375 -10.429688 1.894531 -10.429688 C 1.445312 -10.410156 0.976562 -10.273438 0.507812 -9.980469 C 0.0195312 -9.6875 -0.292969 -9.257812 -0.46875 -8.730469 C -0.605469 -8.242188 -0.566406 -7.851562 -0.3125 -7.558594 C -0.0585938 -7.265625 0.410156 -7.109375 1.09375 -7.109375 C 2.636719 -7.109375 4.296875 -7.773438 6.09375 -9.121094 C 6.25 -9.238281 6.328125 -9.375 6.328125 -9.511719 C 6.308594 -9.648438 6.25 -9.746094 6.152344 -9.804688 C 6.035156 -9.863281 5.898438 -9.824219 5.742188 -9.707031 Z M 5.742188 -9.707031 "/></g></g></g></svg>